# xmcd
#
# Track frame offsets: 
#        150
#        11081
#        23489
#        36282
#        47564
#        57695
#        66998
#        77254
#        88727
#        98239
#
# Disc length: 1488 seconds
#
# Revision: 0
# Processed by: cddbd v1.5.2PL0 Copyright (c) Steve Scherf et al.
# Submitted via: ExactAudioCopy v0.99pb4
#
DISCID=7905ce0a
DTITLE=Sonny James - The Gentleman from the South
DYEAR=1973
DGENRE=Classic Country
TTITLE0=Downfall of Me
TTITLE1=That's Why I Love You Like I Do
TTITLE2=My Love
TTITLE3=Ramblin' Rose
TTITLE4=True Love's a Blessing
TTITLE5=Behind the Tear
TTITLE6=You're the Reason I'm Living
TTITLE7=It Keeps Right On a Hurtin'
TTITLE8=Twenty Feet of Muddy Water
TTITLE9=Endlessly
EXTD=
EXTT0=
EXTT1=
EXTT2=
EXTT3=
EXTT4=
EXTT5=
EXTT6=
EXTT7=
EXTT8=
EXTT9=
PLAYORDER=
